<svg height="20" viewBox="0 0 20 20" width="20" xmlns="http://www.w3.org/2000/svg">
<rect fill="white" height="9" width="1" x="1" y="1"/>
<rect fill="white" height="17" width="1" x="1" y="11"/>
<rect fill="white" height="1" width="3" x="1" y="29"/>
<rect fill="white" height="4" width="1" x="1" y="30"/>
<rect fill="white" height="1" width="5" x="1" y="35"/>
<rect fill="white" height="4" width="1" x="1" y="36"/>
<rect fill="white" height="1" width="2" x="2" y="9"/>
<rect fill="white" height="1" width="2" x="2" y="19"/>
<rect fill="white" height="1" width="2" x="2" y="27"/>
<rect fill="white" height="1" width="4" x="2" y="37"/>
<rect fill="white" height="1" width="2" x="2" y="39"/>
<rect fill="white" height="3" width="1" x="3" y="1"/>
<rect fill="white" height="1" width="7" x="3" y="5"/>
<rect fill="white" height="2" width="1" x="3" y="6"/>
<rect fill="white" height="2" width="1" x="3" y="10"/>
<rect fill="white" height="1" width="7" x="3" y="13"/>
<rect fill="white" height="5" width="1" x="3" y="14"/>
<rect fill="white" height="1" width="3" x="3" y="21"/>
<rect fill="white" height="5" width="1" x="3" y="22"/>
<rect fill="white" height="1" width="1" x="3" y="28"/>
<rect fill="white" height="1" width="3" x="3" y="31"/>
<rect fill="white" height="2" width="1" x="3" y="32"/>
<rect fill="white" height="1" width="4" x="4" y="3"/>
<rect fill="white" height="1" width="2" x="4" y="7"/>
<rect fill="white" height="1" width="2" x="4" y="11"/>
<rect fill="white" height="1" width="2" x="4" y="33"/>
<rect fill="white" height="1" width="5" x="5" y="1"/>
<rect fill="white" height="1" width="1" x="5" y="2"/>
<rect fill="white" height="3" width="1" x="5" y="8"/>
<rect fill="white" height="6" width="1" x="5" y="15"/>
<rect fill="white" height="6" width="1" x="5" y="22"/>
<rect fill="white" height="1" width="3" x="5" y="29"/>
<rect fill="white" height="1" width="1" x="5" y="30"/>
<rect fill="white" height="1" width="1" x="5" y="34"/>
<rect fill="white" height="2" width="1" x="5" y="38"/>
<rect fill="white" height="1" width="2" x="6" y="39"/>
<rect fill="white" height="5" width="1" x="7" y="7"/>
<rect fill="white" height="4" width="1" x="7" y="14"/>
<rect fill="white" height="1" width="3" x="7" y="19"/>
<rect fill="white" height="9" width="1" x="7" y="20"/>
<rect fill="white" height="1" width="3" x="7" y="31"/>
<rect fill="white" height="4" width="1" x="7" y="32"/>
<rect fill="white" height="1" width="3" x="7" y="37"/>
<rect fill="white" height="1" width="1" x="7" y="38"/>
<rect fill="white" height="1" width="2" x="8" y="11"/>
<rect fill="white" height="1" width="2" x="8" y="17"/>
<rect fill="white" height="1" width="12" x="8" y="33"/>
<rect fill="white" height="1" width="2" x="8" y="35"/>
<rect fill="white" height="2" width="1" x="9" y="2"/>
<rect fill="white" height="2" width="1" x="9" y="6"/>
<rect fill="white" height="1" width="3" x="9" y="9"/>
<rect fill="white" height="1" width="1" x="9" y="10"/>
<rect fill="white" height="2" width="1" x="9" y="14"/>
<rect fill="white" height="1" width="1" x="9" y="18"/>
<rect fill="white" height="10" width="1" x="9" y="21"/>
<rect fill="white" height="2" width="1" x="9" y="38"/>
<rect fill="white" height="1" width="4" x="10" y="3"/>
<rect fill="white" height="1" width="2" x="10" y="7"/>
<rect fill="white" height="1" width="4" x="10" y="15"/>
<rect fill="white" height="1" width="2" x="10" y="29"/>
<rect fill="white" height="1" width="10" x="10" y="39"/>
<rect fill="white" height="1" width="13" x="11" y="1"/>
<rect fill="white" height="1" width="1" x="11" y="2"/>
<rect fill="white" height="1" width="3" x="11" y="5"/>
<rect fill="white" height="1" width="1" x="11" y="6"/>
<rect fill="white" height="4" width="1" x="11" y="10"/>
<rect fill="white" height="1" width="3" x="11" y="17"/>
<rect fill="white" height="4" width="1" x="11" y="18"/>
<rect fill="white" height="1" width="3" x="11" y="23"/>
<rect fill="white" height="4" width="1" x="11" y="24"/>
<rect fill="white" height="2" width="1" x="11" y="30"/>
<rect fill="white" height="1" width="3" x="11" y="35"/>
<rect fill="white" height="3" width="1" x="11" y="36"/>
<rect fill="white" height="1" width="2" x="12" y="11"/>
<rect fill="white" height="1" width="2" x="12" y="13"/>
<rect fill="white" height="1" width="2" x="12" y="21"/>
<rect fill="white" height="1" width="4" x="12" y="27"/>
<rect fill="white" height="1" width="6" x="12" y="31"/>
<rect fill="white" height="4" width="1" x="13" y="6"/>
<rect fill="white" height="1" width="1" x="13" y="14"/>
<rect fill="white" height="1" width="1" x="13" y="16"/>
<rect fill="white" height="1" width="11" x="13" y="19"/>
<rect fill="white" height="1" width="1" x="13" y="22"/>
<rect fill="white" height="1" width="3" x="13" y="25"/>
<rect fill="white" height="1" width="3" x="13" y="29"/>
<rect fill="white" height="2" width="1" x="13" y="36"/>
<rect fill="white" height="1" width="2" x="14" y="9"/>
<rect fill="white" height="1" width="8" x="14" y="37"/>
<rect fill="white" height="1" width="5" x="15" y="3"/>
<rect fill="white" height="4" width="1" x="15" y="4"/>
<rect fill="white" height="4" width="1" x="15" y="10"/>
<rect fill="white" height="4" width="1" x="15" y="15"/>
<rect fill="white" height="1" width="3" x="15" y="21"/>
<rect fill="white" height="3" width="1" x="15" y="22"/>
<rect fill="white" height="1" width="1" x="15" y="26"/>
<rect fill="white" height="1" width="1" x="15" y="30"/>
<rect fill="white" height="2" width="1" x="15" y="34"/>
<rect fill="white" height="1" width="4" x="16" y="7"/>
<rect fill="white" height="1" width="2" x="16" y="13"/>
<rect fill="white" height="1" width="4" x="16" y="35"/>
<rect fill="white" height="2" width="1" x="17" y="4"/>
<rect fill="white" height="1" width="5" x="17" y="9"/>
<rect fill="white" height="2" width="1" x="17" y="10"/>
<rect fill="white" height="4" width="1" x="17" y="14"/>
<rect fill="white" height="8" width="1" x="17" y="22"/>
<rect fill="white" height="1" width="4" x="18" y="11"/>
<rect fill="white" height="1" width="2" x="18" y="17"/>
<rect fill="white" height="1" width="6" x="18" y="29"/>
<rect fill="white" height="1" width="1" x="19" y="2"/>
<rect fill="white" height="1" width="9" x="19" y="5"/>
<rect fill="white" height="1" width="1" x="19" y="6"/>
<rect fill="white" height="1" width="3" x="19" y="13"/>
<rect fill="white" height="3" width="1" x="19" y="14"/>
<rect fill="white" height="1" width="7" x="19" y="21"/>
<rect fill="white" height="6" width="1" x="19" y="22"/>
<rect fill="white" height="1" width="3" x="19" y="31"/>
<rect fill="white" height="1" width="1" x="19" y="32"/>
<rect fill="white" height="1" width="2" x="20" y="27"/>
<rect fill="white" height="1" width="5" x="21" y="3"/>
<rect fill="white" height="1" width="3" x="21" y="7"/>
<rect fill="white" height="1" width="1" x="21" y="8"/>
<rect fill="white" height="1" width="1" x="21" y="12"/>
<rect fill="white" height="1" width="5" x="21" y="15"/>
<rect fill="white" height="2" width="1" x="21" y="16"/>
<rect fill="white" height="2" width="1" x="21" y="22"/>
<rect fill="white" height="1" width="5" x="21" y="25"/>
<rect fill="white" height="1" width="1" x="21" y="26"/>
<rect fill="white" height="1" width="1" x="21" y="30"/>
<rect fill="white" height="1" width="3" x="21" y="33"/>
<rect fill="white" height="2" width="1" x="21" y="34"/>
<rect fill="white" height="2" width="1" x="21" y="38"/>
<rect fill="white" height="1" width="2" x="22" y="17"/>
<rect fill="white" height="1" width="4" x="22" y="35"/>
<rect fill="white" height="1" width="8" x="22" y="39"/>
<rect fill="white" height="1" width="1" x="23" y="2"/>
<rect fill="white" height="2" width="1" x="23" y="8"/>
<rect fill="white" height="1" width="5" x="23" y="11"/>
<rect fill="white" height="3" width="1" x="23" y="12"/>
<rect fill="white" height="1" width="1" x="23" y="18"/>
<rect fill="white" height="1" width="5" x="23" y="23"/>
<rect fill="white" height="1" width="1" x="23" y="24"/>
<rect fill="white" height="1" width="7" x="23" y="27"/>
<rect fill="white" height="1" width="1" x="23" y="28"/>
<rect fill="white" height="1" width="5" x="23" y="31"/>
<rect fill="white" height="1" width="1" x="23" y="32"/>
<rect fill="white" height="1" width="3" x="23" y="37"/>
<rect fill="white" height="1" width="1" x="23" y="38"/>
<rect fill="white" height="1" width="4" x="24" y="9"/>
<rect fill="white" height="2" width="1" x="25" y="1"/>
<rect fill="white" height="2" width="1" x="25" y="6"/>
<rect fill="white" height="1" width="3" x="25" y="13"/>
<rect fill="white" height="5" width="1" x="25" y="16"/>
<rect fill="white" height="1" width="5" x="25" y="29"/>
<rect fill="white" height="2" width="1" x="25" y="33"/>
<rect fill="white" height="1" width="1" x="25" y="36"/>
<rect fill="white" height="1" width="5" x="27" y="1"/>
<rect fill="white" height="3" width="1" x="27" y="2"/>
<rect fill="white" height="1" width="3" x="27" y="7"/>
<rect fill="white" height="1" width="1" x="27" y="8"/>
<rect fill="white" height="1" width="1" x="27" y="12"/>
<rect fill="white" height="8" width="1" x="27" y="14"/>
<rect fill="white" height="2" width="1" x="27" y="24"/>
<rect fill="white" height="2" width="1" x="27" y="32"/>
<rect fill="white" height="1" width="3" x="27" y="35"/>
<rect fill="white" height="2" width="1" x="27" y="36"/>
<rect fill="white" height="1" width="2" x="28" y="15"/>
<rect fill="white" height="1" width="6" x="28" y="21"/>
<rect fill="white" height="1" width="2" x="28" y="25"/>
<rect fill="white" height="1" width="4" x="28" y="33"/>
<rect fill="white" height="4" width="1" x="29" y="2"/>
<rect fill="white" height="4" width="1" x="29" y="8"/>
<rect fill="white" height="2" width="1" x="29" y="13"/>
<rect fill="white" height="1" width="3" x="29" y="17"/>
<rect fill="white" height="2" width="1" x="29" y="18"/>
<rect fill="white" height="1" width="3" x="29" y="23"/>
<rect fill="white" height="1" width="1" x="29" y="26"/>
<rect fill="white" height="2" width="1" x="29" y="30"/>
<rect fill="white" height="3" width="1" x="29" y="36"/>
<rect fill="white" height="1" width="4" x="30" y="5"/>
<rect fill="white" height="1" width="2" x="30" y="11"/>
<rect fill="white" height="1" width="6" x="30" y="19"/>
<rect fill="white" height="1" width="6" x="30" y="31"/>
<rect fill="white" height="1" width="4" x="30" y="37"/>
<rect fill="white" height="1" width="3" x="31" y="3"/>
<rect fill="white" height="1" width="1" x="31" y="4"/>
<rect fill="white" height="1" width="5" x="31" y="7"/>
<rect fill="white" height="2" width="1" x="31" y="8"/>
<rect fill="white" height="2" width="1" x="31" y="12"/>
<rect fill="white" height="1" width="3" x="31" y="15"/>
<rect fill="white" height="1" width="1" x="31" y="16"/>
<rect fill="white" height="1" width="1" x="31" y="22"/>
<rect fill="white" height="6" width="1" x="31" y="24"/>
<rect fill="white" height="2" width="1" x="31" y="34"/>
<rect fill="white" height="1" width="5" x="31" y="39"/>
<rect fill="white" height="1" width="2" x="32" y="9"/>
<rect fill="white" height="1" width="2" x="32" y="13"/>
<rect fill="white" height="1" width="4" x="32" y="29"/>
<rect fill="white" height="1" width="2" x="32" y="35"/>
<rect fill="white" height="1" width="7" x="33" y="1"/>
<rect fill="white" height="1" width="1" x="33" y="2"/>
<rect fill="white" height="2" width="1" x="33" y="10"/>
<rect fill="white" height="1" width="1" x="33" y="14"/>
<rect fill="white" height="1" width="5" x="33" y="17"/>
<rect fill="white" height="1" width="3" x="33" y="23"/>
<rect fill="white" height="2" width="1" x="33" y="24"/>
<rect fill="white" height="2" width="1" x="33" y="27"/>
<rect fill="white" height="1" width="5" x="33" y="33"/>
<rect fill="white" height="1" width="1" x="33" y="34"/>
<rect fill="white" height="1" width="1" x="33" y="38"/>
<rect fill="white" height="1" width="4" x="34" y="11"/>
<rect fill="white" height="1" width="2" x="34" y="25"/>
<rect fill="white" height="5" width="1" x="35" y="2"/>
<rect fill="white" height="1" width="5" x="35" y="9"/>
<rect fill="white" height="1" width="3" x="35" y="13"/>
<rect fill="white" height="3" width="1" x="35" y="14"/>
<rect fill="white" height="3" width="1" x="35" y="20"/>
<rect fill="white" height="2" width="1" x="35" y="26"/>
<rect fill="white" height="1" width="1" x="35" y="30"/>
<rect fill="white" height="1" width="5" x="35" y="35"/>
<rect fill="white" height="1" width="3" x="35" y="37"/>
<rect fill="white" height="1" width="1" x="35" y="38"/>
<rect fill="white" height="1" width="4" x="36" y="15"/>
<rect fill="white" height="1" width="2" x="36" y="27"/>
<rect fill="white" height="1" width="3" x="37" y="3"/>
<rect fill="white" height="2" width="1" x="37" y="4"/>
<rect fill="white" height="2" width="1" x="37" y="7"/>
<rect fill="white" height="1" width="1" x="37" y="12"/>
<rect fill="white" height="4" width="1" x="37" y="18"/>
<rect fill="white" height="1" width="3" x="37" y="23"/>
<rect fill="white" height="2" width="1" x="37" y="24"/>
<rect fill="white" height="2" width="1" x="37" y="28"/>
<rect fill="white" height="1" width="3" x="37" y="31"/>
<rect fill="white" height="1" width="1" x="37" y="32"/>
<rect fill="white" height="2" width="1" x="37" y="38"/>
<rect fill="white" height="1" width="2" x="38" y="5"/>
<rect fill="white" height="1" width="2" x="38" y="25"/>
<rect fill="white" height="1" width="2" x="38" y="29"/>
<rect fill="white" height="1" width="2" x="38" y="39"/>
<rect fill="white" height="1" width="1" x="39" y="2"/>
<rect fill="white" height="3" width="1" x="39" y="6"/>
<rect fill="white" height="4" width="1" x="39" y="10"/>
<rect fill="white" height="7" width="1" x="39" y="16"/>
<rect fill="white" height="3" width="1" x="39" y="26"/>
<rect fill="white" height="1" width="1" x="39" y="30"/>
<rect fill="white" height="2" width="1" x="39" y="33"/>
<rect fill="white" height="3" width="1" x="39" y="36"/>
</svg>